# Exported from ProBuilder
# http://www.procore3d.com/probuilder
# 5/23/2019 3:45:26 PM

mtllib ./largeLeverBase.mtl
o largeLeverBase

g Cylinder
v 2.185569E-08 0 0.5
v 2.185569E-08 0.16 0.5
v 0.1913417 0 0.4619398
v 0.1913417 0.16 0.4619398
v 0.1913417 0 0.4619398
v 0.1913417 0.16 0.4619398
v 0.3535534 0 0.3535534
v 0.3535534 0.16 0.3535534
v 0.3535534 0 0.3535534
v 0.3535534 0.16 0.3535534
v 0.4619398 0 0.1913417
v 0.4619398 0.16 0.1913417
v 0.4619398 0 0.1913417
v 0.4619398 0.16 0.1913417
v 0.5 0 -4.371139E-08
v 0.5 0.16 -4.371139E-08
v 0.1913417 0 0.4619398
v 0 0 0
v 2.185569E-08 0 0.5
v 0.3535534 0 0.3535534
v 0.4619398 0 0.1913417
v 0.5 0 -4.371139E-08
v 0 0 0
v 0.4619398 0 0.1913417
v 2.185569E-08 0.16 0.5
v 0 0.16 0
v 0.1913417 0.16 0.4619398
v 0.1913417 0.16 0.4619398
v 0 0.16 0
v 0.3535534 0.16 0.3535534
v 0.3535534 0.16 0.3535534
v 0.4619398 0.16 0.1913417
v 0.5 0.16 -4.371139E-08

vn 0.1950903 0 0.9807853
vn 0.1950903 0 0.9807853
vn 0.3753303 0 0.9061275
vn 0.3753303 0 0.9061275
vn 0.3753303 0 0.9061275
vn 0.3753303 0 0.9061275
vn 0.6935199 0 0.6935199
vn 0.6935199 0 0.6935199
vn 0.6935199 0 0.6935199
vn 0.6935199 0 0.6935199
vn 0.9061275 0 0.3753303
vn 0.9061275 0 0.3753303
vn 0.9061275 0 0.3753303
vn 0.9061275 0 0.3753303
vn 0.9807853 0 0.1950903
vn 0.9807853 0 0.1950903
vn 0 -1 0
vn 0 -1 0
vn 0 -1 0
vn 0 -1 0
vn 0 -1 0
vn 0 -0.9999999 0
vn 0 -0.9999999 0
vn 0 -0.9999999 0
vn 0 0.9999999 0
vn 0 0.9999999 0
vn 0 0.9999999 0
vn 0 1 0
vn 0 1 0
vn 0 1 0
vn 0 0.9999999 0
vn 0 0.9999999 0
vn 0 0.9999999 0

vt -0.09754512 0
vt -0.09754512 0.16
vt 0.09754516 0
vt 0.09754516 0.16
vt -0.09754522 0
vt -0.09754522 0.16
vt 0.09754512 0
vt 0.09754512 0.16
vt -0.09754512 0
vt -0.09754512 0.16
vt 0.09754517 0
vt 0.09754517 0.16
vt -0.09754519 0
vt -0.09754519 0.16
vt 0.09754521 0
vt 0.09754521 0.16
vt 0.1913417 0.4619398
vt 0 0
vt 2.185569E-08 0.5
vt 0.3535534 0.3535534
vt 0.4619398 0.1913417
vt 0.5 -4.371139E-08
vt 0 0
vt 0.4619398 0.1913417
vt -2.185569E-08 0.5
vt 0 0
vt -0.1913417 0.4619398
vt -0.1913417 0.4619398
vt 0 0
vt -0.3535534 0.3535534
vt -0.3535534 0.3535534
vt -0.4619398 0.1913417
vt -0.5 -4.371139E-08

g Cylinder
usemtl Default_Prototype
f 3/3/3 2/2/2 1/1/1
f 3/3/3 4/4/4 2/2/2
f 7/7/7 6/6/6 5/5/5
f 7/7/7 8/8/8 6/6/6
f 11/11/11 10/10/10 9/9/9
f 11/11/11 12/12/12 10/10/10
f 15/15/15 14/14/14 13/13/13
f 15/15/15 16/16/16 14/14/14
f 19/19/19 18/18/18 17/17/17
f 17/17/17 18/18/18 20/20/20
f 20/20/20 18/18/18 21/21/21
f 24/24/24 23/23/23 22/22/22
f 27/27/27 26/26/26 25/25/25
f 30/30/30 29/29/29 28/28/28
f 32/32/32 26/26/26 31/31/31
f 33/33/33 26/26/26 32/32/32

