# Exported from ProBuilder
# http://www.procore3d.com/probuilder
# 5/23/2019 7:25:40 PM

mtllib ./Cone.mtl
o Cone

g Cone
v 1 2 0
v 0.5 0 0.8660254
v 0 0 0
v 0 0 0
v 0.5 0 0.8660254
v 1 0 0
v 1 2 0
v 1.5 0 0.8660254
v 0.5 0 0.8660254
v 1.5 0 0.8660254
v 1 2 0
v 2 0 -8.742278E-08
v 1.5 0 0.8660254
v 2 0 -8.742278E-08
v 1 2 0
v 1.5 0 -0.8660254
v 2 0 -8.742278E-08
v 1.5 0 -0.8660254
v 1 2 0
v 0.5000001 0 -0.8660254
v 1.5 0 -0.8660254
v 0.5000001 0 -0.8660254
v 1 2 0
v 0 0 0
v 0.5000001 0 -0.8660254

vn -0.7947195 0.3973597 0.4588315
vn -0.7947195 0.3973597 0.4588315
vn -0.7947195 0.3973597 0.4588315
vn 0 -1 0
vn 0 -1 0
vn 0 -1 0
vn 5.469697E-08 0.3973597 0.9176629
vn 5.469697E-08 0.3973597 0.9176629
vn 5.469697E-08 0.3973597 0.9176629
vn 0 -1 0
vn 0.7947195 0.3973597 0.4588315
vn 0.7947195 0.3973597 0.4588315
vn 0.7947195 0.3973597 0.4588315
vn 0 -1 0
vn 0.7947194 0.3973597 -0.4588316
vn 0.7947194 0.3973597 -0.4588316
vn 0.7947194 0.3973597 -0.4588316
vn 0 -1 0
vn 0 0.3973597 -0.9176629
vn 0 0.3973597 -0.9176629
vn 0 0.3973597 -0.9176629
vn 0 -1 0
vn -0.7947193 0.3973597 -0.4588315
vn -0.7947193 0.3973597 -0.4588315
vn -0.7947193 0.3973597 -0.4588315

vt 0.5 2.17945
vt 1 -2.692701E-09
vt 0 0
vt 0 0
vt 0.5 0.8660254
vt 1 0
vt 1 1.835326
vt 1.5 -0.3441237
vt 0.4999999 -0.3441237
vt 1.5 0.8660254
vt 0.5 1.491202
vt 1 -0.6882473
vt 2.692235E-08 -0.6882473
vt 2 -8.742278E-08
vt -0.5000001 1.491202
vt -5.672467E-08 -0.6882472
vt -1 -0.6882472
vt 1.5 -0.8660254
vt -1 1.835326
vt -0.5000001 -0.3441237
vt -1.5 -0.3441237
vt 0.5000001 -0.8660254
vt -0.5000001 2.17945
vt 0 0
vt -1 -1.728187E-08

g Cone
usemtl Default_Prototype
f 3/3/3 2/2/2 1/1/1
f 6/6/6 5/5/5 4/4/4
f 9/9/9 8/8/8 7/7/7
f 6/6/6 10/10/10 5/5/5
f 13/13/13 12/12/12 11/11/11
f 6/6/6 14/14/14 10/10/10
f 17/17/17 16/16/16 15/15/15
f 6/6/6 18/18/18 14/14/14
f 21/21/21 20/20/20 19/19/19
f 6/6/6 22/22/22 18/18/18
f 25/25/25 24/24/24 23/23/23
f 6/6/6 4/4/4 22/22/22

