# Exported from ProBuilder
# http://www.procore3d.com/probuilder
# 5/23/2019 3:49:18 PM

mtllib ./building.mtl
o building

g building
v -5.543277 0 2.296101
v -5.543277 4.398506 2.296101
v -6 4.398506 0
v -6 0 0
v -4.24264 0 4.24264
v -4.24264 4.398506 4.24264
v -5.543277 4.398506 2.296101
v -5.543277 0 2.296101
v -2.296101 0 5.543277
v -2.296101 4.398506 5.543277
v -4.24264 4.398506 4.24264
v -4.24264 0 4.24264
v 2.622683E-07 0 6
v 2.622683E-07 4.398506 6
v -2.296101 4.398506 5.543277
v -2.296101 0 5.543277
v 2.2961 0 5.543277
v 2.2961 4.398506 5.543277
v 2.622683E-07 4.398506 6
v 2.622683E-07 0 6
v 4.24264 0 4.24264
v 4.24264 4.398506 4.24264
v 2.2961 4.398506 5.543277
v 2.2961 0 5.543277
v 5.543277 0 2.296101
v 5.543277 4.398506 2.296101
v 4.24264 4.398506 4.24264
v 4.24264 0 4.24264
v 6 0 -5.245366E-07
v 6 4.398506 -5.245366E-07
v 5.543277 4.398506 2.296101
v 5.543277 0 2.296101
v 5.543277 0 -2.296101
v 5.543277 4.398506 -2.296101
v 6 4.398506 -5.245366E-07
v 6 0 -5.245366E-07
v 4.242641 0 -4.24264
v 4.242641 4.398506 -4.24264
v 5.543277 4.398506 -2.296101
v 5.543277 0 -2.296101
v 2.296102 0 -5.543277
v 2.296102 4.398506 -5.543277
v 4.242641 4.398506 -4.24264
v 4.242641 0 -4.24264
v -7.154928E-08 0 -6
v -7.154928E-08 4.398506 -6
v 2.296102 4.398506 -5.543277
v 2.296102 0 -5.543277
v -2.296102 0 -5.543277
v -2.296102 4.398506 -5.543277
v -7.154928E-08 4.398506 -6
v -7.154928E-08 0 -6
v -4.24264 0 -4.242641
v -4.24264 4.398506 -4.242641
v -2.296102 4.398506 -5.543277
v -2.296102 0 -5.543277
v -5.543277 0 -2.296101
v -5.543277 4.398506 -2.296101
v -4.24264 4.398506 -4.242641
v -4.24264 0 -4.242641
v -6 0 0
v -6 4.398506 0
v -5.543277 4.398506 -2.296101
v -5.543277 0 -2.296101
v -6 0 0
v 0 0 0
v -5.543277 0 2.296101
v -5.543277 0 2.296101
v 0 0 0
v -4.24264 0 4.24264
v -2.296101 0 5.543277
v 2.622683E-07 0 6
v 2.2961 0 5.543277
v 2.2961 0 5.543277
v 4.24264 0 4.24264
v 4.24264 0 4.24264
v 5.543277 0 2.296101
v 6 0 -5.245366E-07
v 5.543277 0 -2.296101
v 4.242641 0 -4.24264
v 2.296102 0 -5.543277
v 2.296102 0 -5.543277
v -7.154928E-08 0 -6
v -2.296102 0 -5.543277
v -2.296102 0 -5.543277
v -4.24264 0 -4.242641
v -4.24264 0 -4.242641
v -5.543277 0 -2.296101

vn 0.9061275 0 -0.3753303
vn 0.9061275 0 -0.3753303
vn 0.9807853 0 -1.043081E-07
vn 0.9807853 0 -1.043081E-07
vn 0.6935199 0 -0.6935199
vn 0.6935199 0 -0.6935199
vn 0.9061275 0 -0.3753303
vn 0.9061275 0 -0.3753303
vn 0.3753303 0 -0.9061274
vn 0.3753303 0 -0.9061274
vn 0.6935199 0 -0.6935199
vn 0.6935199 0 -0.6935199
vn 6.705523E-08 0 -0.9807853
vn 6.705523E-08 0 -0.9807853
vn 0.3753303 0 -0.9061274
vn 0.3753303 0 -0.9061274
vn -0.3753303 0 -0.9061275
vn -0.3753303 0 -0.9061275
vn 6.705523E-08 0 -0.9807853
vn 6.705523E-08 0 -0.9807853
vn -0.6935199 0 -0.6935199
vn -0.6935199 0 -0.6935199
vn -0.3753303 0 -0.9061275
vn -0.3753303 0 -0.9061275
vn -0.9061275 0 -0.3753303
vn -0.9061275 0 -0.3753303
vn -0.6935199 0 -0.6935199
vn -0.6935199 0 -0.6935199
vn -0.9807853 0 4.470348E-08
vn -0.9807853 0 4.470348E-08
vn -0.9061275 0 -0.3753303
vn -0.9061275 0 -0.3753303
vn -0.9061275 0 0.3753303
vn -0.9061275 0 0.3753303
vn -0.9807853 0 4.470348E-08
vn -0.9807853 0 4.470348E-08
vn -0.6935199 0 0.6935198
vn -0.6935199 0 0.6935198
vn -0.9061275 0 0.3753303
vn -0.9061275 0 0.3753303
vn -0.3753304 0 0.9061275
vn -0.3753304 0 0.9061275
vn -0.6935199 0 0.6935198
vn -0.6935199 0 0.6935198
vn 0 0 0.9807853
vn 0 0 0.9807853
vn -0.3753304 0 0.9061275
vn -0.3753304 0 0.9061275
vn 0.3753303 0 0.9061275
vn 0.3753303 0 0.9061275
vn 0 0 0.9807853
vn 0 0 0.9807853
vn 0.6935199 0 0.69352
vn 0.6935199 0 0.69352
vn 0.3753303 0 0.9061275
vn 0.3753303 0 0.9061275
vn 0.9061275 0 0.3753303
vn 0.9061275 0 0.3753303
vn 0.6935199 0 0.69352
vn 0.6935199 0 0.69352
vn 0.9807853 0 -1.043081E-07
vn 0.9807853 0 -1.043081E-07
vn 0.9061275 0 0.3753303
vn 0.9061275 0 0.3753303
vn 0 0.9999999 0
vn 0 0.9999999 0
vn 0 0.9999999 0
vn 0 1 0
vn 0 1 0
vn 0 1 0
vn 0 1 0
vn 0 1 0
vn 0 1 0
vn 0 0.9999999 0
vn 0 0.9999999 0
vn 0 1 0
vn 0 1 0
vn 0 1 0
vn 0 1 0
vn 0 1 0
vn 0 1 0
vn 0 0.9999999 0
vn 0 0.9999999 0
vn 0 0.9999999 0
vn 0 1 0
vn 0 1 0
vn 0 0.9999999 0
vn 0 0.9999999 0

vt -1.170541 0
vt -1.170541 4.398506
vt 1.170543 4.398506
vt 1.170543 0
vt -1.170542 0
vt -1.170542 4.398506
vt 1.170542 4.398506
vt 1.170542 0
vt -1.170542 0
vt -1.170542 4.398506
vt 1.170542 4.398506
vt 1.170542 0
vt -1.170543 0
vt -1.170543 4.398506
vt 1.170541 4.398506
vt 1.170541 0
vt -1.170542 0
vt -1.170542 4.398506
vt 1.170542 4.398506
vt 1.170542 0
vt -1.170541 0
vt -1.170541 4.398506
vt 1.170543 4.398506
vt 1.170543 0
vt -1.170542 0
vt -1.170542 4.398506
vt 1.170542 4.398506
vt 1.170542 0
vt -1.170543 0
vt -1.170543 4.398506
vt 1.170542 4.398506
vt 1.170542 0
vt -1.170541 0
vt -1.170541 4.398506
vt 1.170543 4.398506
vt 1.170543 0
vt -1.170543 0
vt -1.170543 4.398506
vt 1.170541 4.398506
vt 1.170541 0
vt -1.170541 0
vt -1.170541 4.398506
vt 1.170542 4.398506
vt 1.170542 0
vt -1.170543 0
vt -1.170543 4.398506
vt 1.170542 4.398506
vt 1.170542 0
vt -1.170542 0
vt -1.170542 4.398506
vt 1.170542 4.398506
vt 1.170542 0
vt -1.170541 0
vt -1.170541 4.398506
vt 1.170541 4.398506
vt 1.170541 0
vt -1.170543 0
vt -1.170543 4.398506
vt 1.170542 4.398506
vt 1.170542 0
vt -1.170542 0
vt -1.170542 4.398506
vt 1.170542 4.398506
vt 1.170542 0
vt 6 0
vt 0 0
vt 5.543277 2.296101
vt 5.543277 2.296101
vt 0 0
vt 4.24264 4.24264
vt 2.296101 5.543277
vt -2.622683E-07 6
vt -2.2961 5.543277
vt -2.2961 5.543277
vt -4.24264 4.24264
vt -4.24264 4.24264
vt -5.543277 2.296101
vt -6 -5.245366E-07
vt -5.543277 -2.296101
vt -4.242641 -4.24264
vt -2.296102 -5.543277
vt -2.296102 -5.543277
vt 7.154928E-08 -6
vt 2.296102 -5.543277
vt 2.296102 -5.543277
vt 4.24264 -4.242641
vt 4.24264 -4.242641
vt 5.543277 -2.296101

g building
usemtl Default_Prototype
f 3/3/3 2/2/2 1/1/1
f 4/4/4 3/3/3 1/1/1
f 7/7/7 6/6/6 5/5/5
f 8/8/8 7/7/7 5/5/5
f 11/11/11 10/10/10 9/9/9
f 12/12/12 11/11/11 9/9/9
f 15/15/15 14/14/14 13/13/13
f 16/16/16 15/15/15 13/13/13
f 19/19/19 18/18/18 17/17/17
f 20/20/20 19/19/19 17/17/17
f 23/23/23 22/22/22 21/21/21
f 24/24/24 23/23/23 21/21/21
f 27/27/27 26/26/26 25/25/25
f 28/28/28 27/27/27 25/25/25
f 31/31/31 30/30/30 29/29/29
f 32/32/32 31/31/31 29/29/29
f 35/35/35 34/34/34 33/33/33
f 36/36/36 35/35/35 33/33/33
f 39/39/39 38/38/38 37/37/37
f 40/40/40 39/39/39 37/37/37
f 43/43/43 42/42/42 41/41/41
f 44/44/44 43/43/43 41/41/41
f 47/47/47 46/46/46 45/45/45
f 48/48/48 47/47/47 45/45/45
f 51/51/51 50/50/50 49/49/49
f 52/52/52 51/51/51 49/49/49
f 55/55/55 54/54/54 53/53/53
f 56/56/56 55/55/55 53/53/53
f 59/59/59 58/58/58 57/57/57
f 60/60/60 59/59/59 57/57/57
f 63/63/63 62/62/62 61/61/61
f 64/64/64 63/63/63 61/61/61
f 67/67/67 66/66/66 65/65/65
f 70/70/70 69/69/69 68/68/68
f 71/71/71 69/69/69 70/70/70
f 72/72/72 69/69/69 71/71/71
f 73/73/73 69/69/69 72/72/72
f 75/75/75 66/66/66 74/74/74
f 77/77/77 69/69/69 76/76/76
f 78/78/78 69/69/69 77/77/77
f 79/79/79 69/69/69 78/78/78
f 80/80/80 69/69/69 79/79/79
f 81/81/81 69/69/69 80/80/80
f 83/83/83 66/66/66 82/82/82
f 84/84/84 66/66/66 83/83/83
f 86/86/86 69/69/69 85/85/85
f 88/88/88 66/66/66 87/87/87
f 65/65/65 66/66/66 88/88/88

